<?xml version="1.0" encoding="utf-8"?>
<!-- Generator: Adobe Illustrator 16.0.0, SVG Export Plug-In . SVG Version: 6.00 Build 0)  -->
<!DOCTYPE svg PUBLIC "-//W3C//DTD SVG 1.1//EN" "http://www.w3.org/Graphics/SVG/1.1/DTD/svg11.dtd">
<svg version="1.1" xmlns="http://www.w3.org/2000/svg" xmlns:xlink="http://www.w3.org/1999/xlink" x="0px" y="0px"
	 width="298.488px" height="298.488px" viewBox="0 0 298.488 298.488" enable-background="new 0 0 298.488 298.488"
	 xml:space="preserve">
<g id="Calque_1">
	<g>
		<path fill-rule="evenodd" clip-rule="evenodd" d="M7.587,106.053c6.723-0.016,13.453,0.134,20.167-0.126
			c2.84-0.11,3.784,1.059,4.63,3.498c12.251,35.308,24.6,70.583,36.932,105.863c0.518,1.481,1.1,2.94,2.039,5.438
			c21.451-57.157,42.576-113.444,63.701-169.731c0.202,0.008,0.404,0.016,0.606,0.023c0.064,1.078,0.169,2.154,0.184,3.233
			c0.213,15.818,0.458,31.637,0.567,47.457c0.016,2.322-0.301,4.754-1.009,6.959c-18.186,56.633-36.461,113.236-54.634,169.873
			c-0.773,2.41-1.842,3.395-4.378,3.371c-3.273-0.03-6.55,0.348-9.97,0.559c-5.923-17.806-11.78-35.396-17.626-52.99
			c-13.237-39.835-26.465-79.675-39.72-119.505c-0.362-1.087-0.987-2.088-1.489-3.129C7.587,106.581,7.587,106.316,7.587,106.053z"
			/>
		<path fill-rule="evenodd" clip-rule="evenodd" d="M190.761,219.054c-5.402-2.084-10.748-4.33-16.229-6.184
			c-2.856-0.964-3.222-2.194-2.22-4.916c7.749-21.029,15.354-42.113,23.004-63.18c0.439-1.21,0.885-2.417,1.402-3.847
			c-21.492-7.856-42.602-15.574-64.008-23.399c-8.584,23.48-17.081,46.721-25.684,70.256c-6.65-2.431-13.004-4.753-19.64-7.179
			c17.748-48.553,35.459-96.998,53.25-145.666c6.404,2.342,12.675,4.635,19.461,7.115c-7.051,19.289-14.124,38.634-21.279,58.214
			c21.601,7.896,42.69,15.605,64.173,23.459c7.123-19.479,14.16-38.733,21.344-58.388c6.906,2.523,13.43,4.907,19.953,7.292
			C226.446,121.439,208.602,170.245,190.761,219.054z"/>
	</g>
</g>
<g id="Calque_2">
	<path fill-rule="evenodd" clip-rule="evenodd" fill="#04A920" d="M103.89,22.019c5.329,2.273,9.55,5.9,12.787,10.657
		c3.949,5.802,5.857,12.229,5.523,19.271c-0.059,1.237-0.234,2.472-0.408,3.702c-0.238,1.68-0.434,3.375-0.81,5.026
		c-1.042,4.575-3.864,7.867-7.939,9.955c-7.319,3.75-14.771,3.777-22.164,0.139c-2.601-1.28-5.235-2.567-7.624-4.192
		c-5.689-3.871-8.651-9.472-9.618-16.205c-0.05-0.347-0.14-0.688-0.211-1.034c0-1.245,0-2.489,0-3.734
		c0.132-0.832,0.238-1.667,0.399-2.493c1.085-5.585,3.566-10.341,8.239-13.782c3.41-2.512,7.236-4.138,11.266-5.358
		c2.388-0.723,4.957-0.771,7.219-1.951C101.663,22.019,102.776,22.019,103.89,22.019z M115.316,52.336
		c-0.063-4.701-1.575-10.15-4.656-15.141c-1.245-2.015-2.704-3.785-4.823-5.043c-1.815-1.078-3.464-2.468-5.069-3.855
		c-0.725-0.626-1.406-0.897-2.289-0.725c-3.622,0.71-7.243,1.428-10.858,2.17c-0.287,0.059-0.613,0.268-0.784,0.506
		c-1.531,2.123-3.142,4.2-4.508,6.425c-1.364,2.221-2.703,4.542-1.863,7.365c0.044,0.148,0,0.326-0.014,0.488
		c-0.536,6.23,1.904,11.231,6.423,15.323c4.397,3.983,9.657,6.32,15.352,7.733c2.6,0.646,5.215,1.246,7.92,0.316
		c0.844-0.29,1.392-0.708,1.829-1.456C114.317,62.439,115.327,58.101,115.316,52.336z"/>
	<path fill-rule="evenodd" clip-rule="evenodd" fill="#FF0000" d="M292.084,126.792c-0.298,0.213-0.613,0.405-0.888,0.645
		c-1.978,1.718-4.204,1.813-6.275,0.201c-0.651-0.507-1.319-1.049-1.805-1.704c-3.553-4.8-8.069-8.708-12.045-13.115
		c-0.498-0.552-1.058-1.048-1.556-1.537c-3.67,3.638-7.357,7.261-10.996,10.931c-0.59,0.596-0.909,1.453-1.459,2.098
		c-2.157,2.522-4.662,4.643-7.508,6.355c-0.84,0.505-0.983,0.512-2.404,0.235c0.156-0.575,0.17-1.241,0.489-1.688
		c0.79-1.106,1.661-2.169,2.604-3.15c5.271-5.485,10.575-10.94,15.865-16.407c0.296-0.306,0.587-0.618,0.914-0.962
		c-6.606-6.485-13.633-12.346-22.064-16.624c0.935-0.632,1.738-1.178,2.544-1.719c0.755-0.508,1.536-0.982,2.263-1.528
		c0.439-0.33,0.753-0.282,1.21-0.014c6.812,3.985,12.916,8.885,18.605,14.327c0.445,0.426,0.895,0.847,1.411,1.334
		c1.226-1.362,2.484-2.671,3.64-4.065c2.443-2.948,4.8-5.968,7.267-8.896c0.634-0.751,1.482-1.378,2.346-1.866
		c0.965-0.546,2.057-0.868,3.144-1.308c0.317,0.404,0.628,0.799,1.061,1.35c-4.922,5.755-9.843,11.509-14.809,17.315
		c0.009,0.012,0.074,0.122,0.161,0.211c5.873,6.022,11.745,12.043,17.623,18.06c0.201,0.206,0.44,0.371,0.663,0.555
		C292.084,126.149,292.084,126.471,292.084,126.792z"/>
	<path fill-rule="evenodd" clip-rule="evenodd" fill="#04A920" d="M156.764,138.519c3.989,1.702,7.149,4.417,9.573,7.979
		c2.957,4.344,4.385,9.155,4.136,14.428c-0.044,0.926-0.176,1.851-0.306,2.771c-0.179,1.258-0.325,2.526-0.606,3.763
		c-0.781,3.426-2.893,5.89-5.944,7.453c-5.479,2.808-11.06,2.828-16.594,0.104c-1.948-0.958-3.92-1.922-5.708-3.138
		c-4.259-2.898-6.477-7.092-7.201-12.133c-0.038-0.26-0.105-0.516-0.158-0.774c0-0.932,0-1.864,0-2.796
		c0.099-0.622,0.178-1.248,0.298-1.866c0.813-4.182,2.67-7.742,6.168-10.319c2.553-1.881,5.417-3.098,8.435-4.012
		c1.788-0.542,3.711-0.577,5.404-1.46C155.096,138.519,155.93,138.519,156.764,138.519z M165.319,161.217
		c-0.048-3.519-1.18-7.599-3.487-11.335c-0.932-1.509-2.023-2.834-3.61-3.775c-1.359-0.808-2.594-1.848-3.795-2.886
		c-0.543-0.469-1.053-0.672-1.714-0.542c-2.711,0.531-5.422,1.069-8.129,1.625c-0.215,0.044-0.459,0.201-0.587,0.378
		c-1.146,1.589-2.352,3.145-3.375,4.811c-1.021,1.663-2.023,3.4-1.395,5.515c0.033,0.111,0,0.244-0.011,0.366
		c-0.401,4.664,1.426,8.408,4.809,11.472c3.292,2.982,7.23,4.731,11.494,5.79c1.946,0.483,3.904,0.933,5.929,0.236
		c0.632-0.217,1.043-0.53,1.37-1.09C164.571,168.781,165.326,165.532,165.319,161.217z"/>
</g>
</svg>
